<svg id="Layer_1" enable-background="new 0 0 512 512" height="512" viewBox="0 0 512 512" width="512" xmlns="http://www.w3.org/2000/svg"><g><path d="m133.566 472.775 9.474 6.055c31.047 14.23 65.575 22.172 101.962 22.172 41.259 0 80.126-10.214 114.238-28.228h-225.674z" fill="#1c2e7a"/><path d="m85.94 442.335 6.415 4.1h306.779c55.429-44.918 90.87-113.532 90.87-190.435 0-135.311-109.691-245.002-245.002-245.002-36.387 0-70.915 7.943-101.962 22.172l-103.06 356.983c12.791 19.508 28.286 37.08 45.96 52.182z" fill="#ffdd40"/><path d="m353.741 33.17h-210.7c-84.406 38.686-143.041 123.906-143.041 222.83 0 24.384 3.579 47.928 10.212 70.156h164.237v-24.124c0-7.677 5.988-14.226 13.634-14.91l1.366-.122v-33.744c0-12.108 9.851-21.959 21.959-21.959h176.477v-163.982c0-18.828-15.317-34.145-34.144-34.145z" fill="#167cc1"/><path d="m20.959 156.737c10.159 7.923 19.372 17.739 27.47 29.554 49.8 72.667 96.972 58.705 143.869 56.169 3.776-6.658 10.925-11.163 19.11-11.163h154.477v-142.031h-300.377c-18.344 19.74-33.472 42.505-44.549 67.471z" fill="#73c3f9"/><path d="m96.818 89.267h-31.309c-18.345 19.739-33.472 42.504-44.55 67.47 10.159 7.923 19.372 17.739 27.47 29.554 16.386 23.91 32.488 38.44 48.389 47.085z" fill="#4fabf7"/><path d="m242.1 131.827c45.018 55.099 85.266 68.743 123.785 68.921v-111.482h-173.786c18.303 10.192 35.087 24.308 50.001 42.561z" fill="#9bd8f9"/><path d="m353.741 55.17h-249.083c-14.981 10.489-28.744 22.599-41.011 36.096h302.238v-23.951c0-6.583-5.561-12.145-12.144-12.145z" fill="#2a428c"/><path d="m96.818 77.653c0-7.147 1.602-13.935 4.448-20.037-13.666 9.916-26.287 21.182-37.619 33.651h33.171z" fill="#1c2e7a"/><path d="m73.848 80.718h176.972c4.142 0 7.5-3.358 7.5-7.5s-3.358-7.5-7.5-7.5h-160.14c-5.84 4.743-11.455 9.749-16.832 15z" fill="#3c58a0"/><g><path d="m337.54 80.718h-9.775c-4.142 0-7.5-3.358-7.5-7.5s3.358-7.5 7.5-7.5h9.775c4.142 0 7.5 3.358 7.5 7.5s-3.357 7.5-7.5 7.5z" fill="#3c58a0"/></g><g><path d="m303.554 80.718h-9.776c-4.142 0-7.5-3.358-7.5-7.5s3.358-7.5 7.5-7.5h9.776c4.142 0 7.5 3.358 7.5 7.5s-3.358 7.5-7.5 7.5z" fill="#3c58a0"/></g><path d="m314.126 125.266h-91.292v26.286h91.292c7.259 0 13.143-5.884 13.143-13.143s-5.884-13.143-13.143-13.143z" fill="#e9efff"/><path d="m264.838 138.409c0-7.259 5.884-13.143 13.143-13.143h-55.146v26.286h55.146c-7.259 0-13.143-5.884-13.143-13.143z" fill="#d3dcfb"/><path d="m223.835 125.266h-14.752c-7.259 0-13.143 5.884-13.143 13.143s5.884 13.143 13.143 13.143h14.752z" fill="#3c58a0"/><path d="m50.078 185.16c-8.64-12.607-18.197-22.556-28.268-30.345-14.006 30.844-21.81 65.103-21.81 101.185 0 24.384 3.579 47.928 10.212 70.156h164.237v-24.124c0-7.677 5.988-14.226 13.634-14.91l1.366-.122v-33.744c0-4.807 1.557-9.255 4.186-12.875-47.54 2.361-93.787 17.402-143.557-55.221z" fill="#4fabf7"/><path d="m96.818 231.162c-15.326-8.581-30.853-22.82-46.74-46.001-8.64-12.607-18.197-22.556-28.268-30.345-14.006 30.844-21.81 65.102-21.81 101.184 0 24.384 3.579 47.928 10.212 70.156h86.606z" fill="#1e9ef4"/><path d="m174.449 462.351v-74.198h-79.625l-5.545 41.377c-.646 4.817-1.85 9.072-3.339 12.805 17.15 14.654 36.344 26.982 57.1 36.495h47.416v-1.5h-1.029c-8.259 0-14.978-6.719-14.978-14.979z" fill="#d3dcfb"/><path d="m174.449 462.351v-74.198h-49.253l-1.651 2s14.653 7.85 14.653 22.85 0 31.824 0 31.824.339 20.632-17.106 22.555c7.096 4.169 14.418 7.996 21.949 11.447h47.416v-1.5h-1.029c-8.26.001-14.979-6.718-14.979-14.978z" fill="#bec8f7"/><path d="m39.98 390.153h134.469v-65.997h-164.832c6.842 23.671 17.161 45.863 30.363 65.997z" fill="#e9efff"/><path d="m96.818 347.325v-23.169h-87.201c6.842 23.671 17.161 45.862 30.363 65.997h83.565c-15.795-7.808-26.727-24.1-26.727-42.828z" fill="#d3dcfb"/><circle cx="141.514" cy="357.155" fill="#bec8f7" r="14.719"/><path d="m475.826 229.797h-264.418c-12.902 0-23.459 10.557-23.459 23.459v34.373c.486-.05.979-.075 1.479-.075h76.84c7.983 0 14.479 6.495 14.479 14.478v142.796h218.513c.013-.319.024-.638.024-.959v-190.614c.001-12.902-10.556-23.458-23.458-23.458z" fill="#167cc1"/><path d="m365.327 440.199c-11.808-11.466-7.694-24.113-3.673-31.233 1.618-2.865.479-6.536-2.504-7.924-14.8-6.887-12.288-21.044-10.738-26.322.412-1.402.247-2.908-.429-4.203l-14.27-27.359c-.393-.753-.941-1.422-1.63-1.919-9.122-6.59-7.305-16.121-5.211-21.543.913-2.364.099-5.07-1.949-6.563-10.077-7.352-7.718-18.333-5.573-23.964.818-2.148.283-4.597-1.409-6.154-11.665-10.734-8.122-22.06-5.298-27.47 1.002-1.92.916-4.258-.315-6.039-4.303-6.227-2.478-12.194-.402-15.9.669-1.195.891-2.538.69-3.808h-101.21c-12.903 0-23.459 10.557-23.459 23.459v34.372c.486-.049.98-.075 1.478-.075h76.84c7.983 0 14.479 6.495 14.479 14.478v142.796h86.251c.17-1.667-.386-3.384-1.668-4.629z" fill="#0e62a8"/><path d="m210.449 283.553v4h55.818c7.983 0 14.479 6.495 14.479 14.478v142.796h191.458c2.53 0 4.581-2.051 4.581-4.581v-156.693z" fill="#ff4155"/><path d="m210.449 287.553h55.818c7.983 0 14.479 6.495 14.479 14.478v142.796h86.251c.168-1.667-.388-3.384-1.67-4.629-11.808-11.466-7.694-24.113-3.673-31.233 1.618-2.865.479-6.536-2.504-7.924-14.8-6.887-12.288-21.044-10.738-26.322.412-1.402.247-2.908-.429-4.203l-14.27-27.359c-.393-.753-.941-1.422-1.63-1.919-9.122-6.59-7.305-16.121-5.211-21.543.913-2.364.099-5.07-1.949-6.563-10.077-7.352-7.718-18.333-5.573-23.964.73-1.915.376-4.067-.907-5.615h-107.994z" fill="#e80054"/><path d="m503.904 443.828h-223.158v18.523c0 7.984-6.495 14.479-14.479 14.479h-4.663v2h223.489c14.86 0 26.906-12.046 26.906-26.906.001-4.471-3.624-8.096-8.095-8.096z" fill="#e9efff"/><path d="m280.746 462.351c0 7.984-6.495 14.479-14.479 14.479h-4.663v2h107.202c-.313-.694-.757-1.331-1.336-1.857-12.753-11.594-6.586-23.184-1.727-29.104.963-1.173 1.374-2.626 1.268-4.041h-86.266v18.523z" fill="#d3dcfb"/><path d="m472.204 252.297h-257.174c-2.53 0-4.581 2.051-4.581 4.581v28.675h266.336v-28.675c0-2.53-2.051-4.581-4.581-4.581z" fill="#ff7186"/><path d="m312.645 255.544c.53-1.014.746-2.143.66-3.247h-98.275c-2.53 0-4.581 2.051-4.581 4.581v28.675h109.043c-.275-.953-.788-1.839-1.549-2.539-11.665-10.734-8.122-22.061-5.298-27.47z" fill="#ff4155"/><g><g><path d="m266.267 471.33h-76.84c-9.086 0-16.479-7.392-16.479-16.479v-160.319c0-9.087 7.392-16.479 16.479-16.479h76.84c9.086 0 16.479 7.392 16.479 16.479v160.319c0 9.087-7.393 16.479-16.479 16.479z" fill="#ffdd40"/></g></g><path d="m233.26 294.525h7.55v-16.471h-51.382c-9.086 0-16.479 7.392-16.479 16.479v160.319c0 9.087 7.392 16.479 16.479 16.479h43.833c-9.086 0-16.479-7.392-16.479-16.479v-143.849c-.001-9.086 7.391-16.478 16.478-16.478z" fill="#ffb332"/><g><path d="m201.119 344.915h-2.762c-4.142 0-7.5-3.357-7.5-7.5s3.358-7.5 7.5-7.5h2.762c4.142 0 7.5 3.357 7.5 7.5 0 4.142-3.358 7.5-7.5 7.5z" fill="#fcf2c8"/></g><g><path d="m201.119 373.741h-2.762c-4.142 0-7.5-3.358-7.5-7.5 0-4.143 3.358-7.5 7.5-7.5h2.762c4.142 0 7.5 3.357 7.5 7.5 0 4.142-3.358 7.5-7.5 7.5z" fill="#fcf2c8"/></g><g><path d="m201.119 402.567h-2.762c-4.142 0-7.5-3.357-7.5-7.5 0-4.142 3.358-7.5 7.5-7.5h2.762c4.142 0 7.5 3.358 7.5 7.5s-3.358 7.5-7.5 7.5z" fill="#fcf2c8"/></g><g><path d="m201.119 431.393h-2.762c-4.142 0-7.5-3.357-7.5-7.5s3.358-7.5 7.5-7.5h2.762c4.142 0 7.5 3.357 7.5 7.5s-3.358 7.5-7.5 7.5z" fill="#fcf2c8"/></g><g><path d="m257.338 344.915h-33.057c-4.142 0-7.5-3.357-7.5-7.5s3.358-7.5 7.5-7.5h33.057c4.142 0 7.5 3.357 7.5 7.5 0 4.142-3.358 7.5-7.5 7.5z" fill="#fcf2c8"/></g><g><path d="m257.338 373.741h-33.057c-4.142 0-7.5-3.358-7.5-7.5 0-4.143 3.358-7.5 7.5-7.5h33.057c4.142 0 7.5 3.357 7.5 7.5 0 4.142-3.358 7.5-7.5 7.5z" fill="#fcf2c8"/></g><g><path d="m257.338 402.567h-33.057c-4.142 0-7.5-3.357-7.5-7.5 0-4.142 3.358-7.5 7.5-7.5h33.057c4.142 0 7.5 3.358 7.5 7.5s-3.358 7.5-7.5 7.5z" fill="#fcf2c8"/></g><g><path d="m257.338 431.393h-33.057c-4.142 0-7.5-3.357-7.5-7.5s3.358-7.5 7.5-7.5h33.057c4.142 0 7.5 3.357 7.5 7.5s-3.358 7.5-7.5 7.5z" fill="#fcf2c8"/></g><path d="m266.267 270.553h-76.84c-13.221 0-23.978 10.757-23.978 23.979v160.319c0 13.222 10.757 23.978 23.978 23.978h76.84c13.222 0 23.979-10.757 23.979-23.978v-160.319c0-13.222-10.757-23.979-23.979-23.979zm8.979 184.298c0 4.959-4.02 8.978-8.979 8.978h-76.84c-4.958 0-8.978-4.02-8.978-8.978v-160.32c0-4.959 4.02-8.979 8.979-8.979h13.833c.891 0 1.614.722 1.614 1.613 0 5.277 4.317 9.594 9.594 9.594h26.758c5.277 0 9.594-4.317 9.594-9.594 0-.891.722-1.613 1.614-1.613h13.833c4.959 0 8.979 4.02 8.979 8.979v160.32z" fill="#167cc1"/><ellipse cx="343.617" cy="360.913" fill="#e9efff" rx="47.724" ry="47.724" transform="matrix(.191 -.982 .982 .191 -76.216 629.375)"/><path d="m359.15 401.041c-14.8-6.887-12.288-21.044-10.738-26.322.412-1.402.247-2.908-.429-4.203l-14.27-27.359c-.393-.753-.941-1.422-1.63-1.919-9.122-6.59-7.305-16.121-5.211-21.543.448-1.159.475-2.398.151-3.538-18.177 6.741-31.132 24.234-31.132 44.756 0 26.357 21.367 47.724 47.724 47.724 6.606 0 12.898-1.343 18.619-3.77-.376-1.621-1.451-3.066-3.084-3.826z" fill="#d3dcfb"/><path d="m363.469 357.242-26.786-15.096c-2.809-1.583-6.283.447-6.283 3.671v30.192c0 3.224 3.474 5.254 6.283 3.671l26.786-15.096c2.86-1.611 2.86-5.73 0-7.342z" fill="#ff4155"/><path d="m219.453 463.83h-30.026c-4.958 0-8.978-4.02-8.978-8.978v-160.32c0-4.959 4.02-8.979 8.979-8.979h13.833c.891 0 1.614.722 1.614 1.613 0 5.277 4.317 9.594 9.594 9.594h10.525c-10.643-12.449-2.065-23.378.564-26.207h-36.13c-13.221 0-23.978 10.757-23.978 23.979v160.319c0 13.222 10.757 23.978 23.978 23.978h28.179c-5.466-7.769 1.173-14.363 1.846-14.999z" fill="#0e62a8"/></g></svg>